<?xml version="1.0" standalone="no"?><svg xmlns="http://www.w3.org/2000/svg" viewBox="0 0 1440 320"><path fill="#ADD8E6" fill-opacity="1" d="M0,256L24,250.7C48,245,96,235,144,202.7C192,171,240,117,288,122.7C336,128,384,192,432,202.7C480,213,528,171,576,170.7C624,171,672,213,720,229.3C768,245,816,235,864,229.3C912,224,960,224,1008,208C1056,192,1104,160,1152,144C1200,128,1248,128,1296,144C1344,160,1392,192,1416,208L1440,224L1440,320L1416,320C1392,320,1344,320,1296,320C1248,320,1200,320,1152,320C1104,320,1056,320,1008,320C960,320,912,320,864,320C816,320,768,320,720,320C672,320,624,320,576,320C528,320,480,320,432,320C384,320,336,320,288,320C240,320,192,320,144,320C96,320,48,320,24,320L0,320Z"></path></svg>