<?xml version="1.0" standalone="no"?><svg xmlns="http://www.w3.org/2000/svg" viewBox="0 0 1440 320"><path fill="#fff" fill-opacity="1" d="M0,256L24,250.7C48,245,96,235,144,202.7C192,171,240,117,288,122.7C336,128,384,192,432,202.7C480,213,528,171,576,170.7C624,171,672,213,720,229.3C768,245,816,235,864,229.3C912,224,960,224,1008,208C1056,192,1104,160,1152,144C1200,128,1248,128,1296,144C1344,160,1392,192,1416,208L1440,224L1440,0L1416,0C1392,0,1344,0,1296,0C1248,0,1200,0,1152,0C1104,0,1056,0,1008,0C960,0,912,0,864,0C816,0,768,0,720,0C672,0,624,0,576,0C528,0,480,0,432,0C384,0,336,0,288,0C240,0,192,0,144,0C96,0,48,0,24,0L0,0Z"></path></svg>